<svg xmlns="http://www.w3.org/2000/svg" width="1315" height="540" viewBox="0 0 1315 540" version="1.1"><path d="M 1300.385 218 C 1300.385 224.875, 1300.545 227.688, 1300.740 224.250 C 1300.936 220.813, 1300.936 215.188, 1300.740 211.750 C 1300.545 208.313, 1300.385 211.125, 1300.385 218 M 1246.473 357.250 L 1239.500 364.500 1246.750 357.527 C 1250.737 353.692, 1254 350.429, 1254 350.277 C 1254 349.543, 1252.950 350.516, 1246.473 357.250" stroke="none" fill="#888888" fill-rule="evenodd"/><path d="M 83.523 67.194 C 82.707 70.663, 16 491.956, 16 493.643 C 16 494.917, 31.445 495.054, 137.250 494.718 C 269.271 494.299, 265.574 494.448, 294.335 488.399 C 341.876 478.400, 384.195 453.548, 411.433 419.632 L 418.365 411 471.115 411 C 520.496 411, 523.897 411.112, 524.365 412.750 C 524.640 413.712, 527.905 432.613, 531.622 454.750 L 538.379 495 810.582 495 C 1027.434 495, 1082.879 494.746, 1083.244 493.750 C 1083.496 493.063, 1086.561 474.229, 1090.055 451.899 L 1096.408 411.297 1112.125 410.679 C 1143.416 409.447, 1167.523 404.108, 1194.694 392.395 C 1200.301 389.978, 1205.142 388, 1205.453 388 C 1206.705 388, 1224.002 376.353, 1231.500 370.461 C 1241.116 362.904, 1255.871 347.981, 1262.723 338.881 C 1281.872 313.452, 1294.097 282.096, 1298.544 247.008 C 1300.816 229.078, 1300.108 196.258, 1297.138 181.849 C 1283.400 115.199, 1235.394 72.728, 1166.188 65.994 C 1160.491 65.440, 1072.616 65.041, 952.858 65.026 L 749.217 65 748.688 67.250 C 748.396 68.487, 747.393 74.675, 746.458 81 C 745.523 87.325, 744.475 92.798, 744.129 93.161 C 743.783 93.525, 738.785 90.932, 733.023 87.398 C 717.148 77.664, 700.097 71.480, 677.500 67.260 C 669.444 65.755, 655.547 65.545, 544.948 65.253 L 421.396 64.926 418.095 86.213 C 416.279 97.921, 414.630 107.672, 414.430 107.883 C 414.231 108.094, 412.477 106.870, 410.533 105.163 C 393.331 90.060, 363.645 76.552, 334.360 70.503 C 310.899 65.657, 311.998 65.698, 194.783 65.282 L 84.066 64.889 83.523 67.194 M 134.528 127.250 C 133.799 130.467, 86 432.571, 86 433.964 C 86 434.834, 107.263 435.023, 171.750 434.728 C 247.733 434.379, 258.696 434.134, 268 432.575 C 324.716 423.075, 361.693 397.219, 383.945 351.500 C 406.293 305.582, 413.556 235.586, 400.327 193.626 C 394.328 174.598, 382.609 158.107, 367.204 147.014 C 356.529 139.328, 339.745 132.546, 322.766 129.058 C 305.345 125.480, 292.520 125.007, 212.769 125.003 L 135.038 125 134.528 127.250 M 455.125 234.710 C 445.569 295.095, 437.523 345.963, 437.245 347.750 L 436.738 351 505.869 351 C 543.891 351, 575 351.246, 575 351.546 C 575 352.460, 587.968 430.335, 588.522 432.750 L 589.038 435 648.519 435 C 682.405 435, 708 434.619, 708 434.114 C 708 433.627, 702.600 410.588, 696 382.917 C 689.400 355.246, 684.001 332.132, 684.002 331.553 C 684.003 330.974, 686.048 329.208, 688.546 327.630 C 695.436 323.277, 708.673 310.411, 714.953 301.964 C 725.572 287.678, 732.790 270.915, 737.150 250.411 C 740.282 235.682, 740.549 204.022, 737.645 191.500 C 729.762 157.501, 710.544 137.319, 677.421 128.257 L 667.500 125.543 570 125.232 L 472.500 124.920 455.125 234.710 M 799.515 128.250 C 798.688 132.918, 751 433.989, 751 434.540 C 751 434.793, 775.516 435, 805.481 435 L 859.962 435 860.475 432.750 C 861.184 429.640, 909 127.474, 909 126.104 C 909 125.312, 893.614 125, 854.545 125 L 800.091 125 799.515 128.250 M 972.541 127.250 C 971.869 130.297, 924 432.844, 924 434.047 C 924 434.639, 944.430 435, 977.933 435 C 1028.448 435, 1031.896 434.889, 1032.344 433.250 C 1032.607 432.287, 1035.645 413.422, 1039.094 391.327 L 1045.366 351.154 1085.933 350.764 C 1123.078 350.407, 1127.408 350.186, 1137.265 348.148 C 1150.327 345.447, 1165.536 340.260, 1176.416 334.795 C 1210.563 317.643, 1233.094 283.924, 1239.089 241 C 1240.626 229.999, 1240.627 205.453, 1239.092 196.500 C 1238.431 192.650, 1236.543 185.450, 1234.894 180.500 C 1224.858 150.356, 1201.624 131.587, 1168 126.460 C 1160.224 125.275, 1141.670 125.011, 1065.769 125.006 L 973.038 125 972.541 127.250" stroke="none" fill="#040404" fill-rule="evenodd"/></svg>